<svg xmlns="http://www.w3.org/2000/svg" width="308.472" height="88.793"  fill="#fff" xmlns:v="https://vecta.io/nano"><path d="M79.32 56.86h6.16c.56 0 1.12-.03 1.67.07 1.26.23 1.85.94 1.84 2.1-.01 1.07-.75 1.87-1.96 2-.8.08-1.6.01-2.4.01H79.4v5.52h6.23c.56 0 1.14-.05 1.67.1.97.27 1.7.78 1.7 2 0 1.2-.68 1.8-1.68 1.98-.97.18-1.98.1-2.98.1h-5c-.77 7.43-1.08 7.75-8.4 8.43l-.01 6.14c0 .63.01 1.3-.15 1.9-.27 1-.87 1.65-2.05 1.6-1.13-.04-1.64-.73-1.9-1.66-.14-.5-.12-1.02-.12-1.54V79.2h-5.5l-.01 7.07c-.01 1.6-.8 2.52-2.07 2.53-1.33.01-2.14-.96-2.14-2.6l.02-6.1c0-.27-.02-.55-.04-.9H51.5v6.25c-.01.63 0 1.3-.18 1.9-.27.88-.84 1.5-1.9 1.5s-1.65-.56-1.94-1.46c-.17-.5-.18-1.1-.18-1.65V79.2h-5.5l-.01 7.1c-.02 1.63-.87 2.55-2.23 2.5-1.22-.04-2-1.05-2-2.63l.04-5.74V79.2h-5.52v6.2c0 .52.02 1.04-.07 1.55-.24 1.3-1.02 1.92-2.2 1.87-1.02-.05-1.84-.86-1.9-2.07-.08-1.27-.01-2.55-.01-3.83v-3.7h-5.53l-.01 6.3c-.01.63-.01 1.3-.2 1.88-.28.9-.9 1.44-1.96 1.42-1.07-.02-1.62-.64-1.9-1.52-.17-.55-.15-1.18-.15-1.77l-.01-6.43c-2.43-.01-4.8.18-6.68-1.7-1.84-1.86-1.64-4.2-1.64-6.6h-6.2c-.44 0-.88.05-1.32 0-1.5-.15-2.3-.96-2.26-2.24.04-1.14.98-1.95 2.4-1.97 2-.03 4 0 6 .01h1.2c.05-.3.1-.5.1-.68V61H4.7c-.68 0-1.36.04-2.04.03C1 61 .03 60.2.03 58.9c0-1.28 1-2.1 2.64-2.12l5.87.02c.35 0 .7-.04 1.12-.07V51.3h-6.1c-.48 0-.96.04-1.44-.01-1.36-.15-2.12-.94-2.1-2.12.02-1.13.88-2 2.2-2.03 2-.05 4-.01 6 0h1.4v-5.5c-2.2 0-4.37.01-6.55-.01-.55-.01-1.13-.02-1.64-.2-.88-.3-1.46-.9-1.43-1.95.03-1.07.64-1.62 1.53-1.88.6-.18 1.26-.16 1.9-.16l6.25-.01v-5.5H3.55c-.48 0-.96.03-1.44-.02-1.34-.14-2.1-.95-2.1-2.13.02-1.13.9-1.98 2.22-2 2.12-.04 4.24-.01 6.35 0h1.05v-5.5c-2.16 0-4.3.02-6.45-.01-.63-.01-1.3-.04-1.87-.25-.78-.28-1.3-.83-1.3-1.8-.02-1 .5-1.6 1.32-1.9.58-.2 1.25-.24 1.88-.25l6.57-.01c.02-2.38-.2-4.72 1.64-6.58 1.85-1.87 4.18-1.72 6.68-1.7v-6.4c0-.48-.03-.96.05-1.43.2-1.3.96-1.97 2.14-1.94 1.1.02 1.94.83 2 2.1.07 1.6.01 3.2.01 4.8v2.76h5.54l.01-6.24c0-.63-.02-1.3.15-1.9.25-.9.8-1.5 1.87-1.53C31-.03 31.6.56 31.9 1.5c.17.55.17 1.18.17 1.77l.01 6.3h5.5v-6.2c0-.36-.04-.72-.01-1.07.12-1.5.9-2.3 2.2-2.28 1.17.03 1.97.94 2 2.36V8.6c0 .3.03.62.05.97.25.03.44.08.63.08h4.83V3.3c0-.55-.03-1.13.12-1.66.28-1 .85-1.66 2.04-1.64 1.13.02 1.67.67 1.93 1.62.13.5.13 1.02.14 1.54v6.42h5.52v-6.1c0-.48-.03-.96.02-1.43C57.2.7 58-.01 59.25.03c1.08.03 1.92.88 1.95 2.14.05 2.03.01 4.07.01 6.1v1.3h5.5l.01-6.4c.01-.63.04-1.3.25-1.87.3-.84.93-1.3 1.94-1.3.96.02 1.52.53 1.8 1.3.2.58.24 1.25.24 1.87l.01 6.55c2.43 0 4.77-.2 6.63 1.66s1.67 4.2 1.66 6.62h6.53c.63.01 1.3.03 1.88.24.84.3 1.35.86 1.35 1.88s-.52 1.6-1.35 1.88c-.62.2-1.33.2-2 .22l-6.27.01v5.5h6.07c.52 0 1.04-.04 1.56.02 1.2.14 1.95.93 1.96 2 .02 1.2-.66 2.03-1.95 2.1-1.8.1-3.6.03-5.4.04H79.4v5.52l6.35.01c.63.01 1.3.02 1.88.22.83.3 1.36.86 1.36 1.88 0 1-.5 1.6-1.35 1.88-.55.2-1.17.2-1.76.22l-6.5.01v5.5h6.2c.48 0 .96-.03 1.44.03 1.25.17 1.96.97 1.95 2.13-.02 1.1-.72 1.9-1.97 1.97-1.7.1-3.43.02-5.15.03-2.55 0-2.55.01-2.55 2.5v3.04zM42.27 22c.24 0 .5.05.72-.01.5-.13.97-.3 1.45-.47-.4-.32-.76-.78-1.22-.95-7.08-2.66-14.97-.76-20.1 4.76-1.23 1.32-1.9 2.8-1.8 4.65.1 1.5-.52 2.14-2 2.4a1.65 1.65 0 0 0-.91.52c-.8.94-1.6 1.9-2.3 2.9-.6.85-.52 1.72.32 2.44a68.92 68.92 0 0 1 1.77 1.6c1.67 1.55 2.02 1.6 3.62-.05 1.04-1.08 2.8-1.82 2.25-3.86-.03-.13.2-.33.3-.5 1.3-1.7 3.93-1.83 5.6-.2L40.45 45.6c.32.32.53.88.57 1.35.1 1.45.54 2.73 1.55 3.8 1.3 1.35 2.55 2.77 3.92 4.04 4.3 3.95 8.57 7.9 12.1 12.58.2.25.42.48.65.7 1.25 1.23 2.62 1.3 3.9.1 1.25-1.17 2.5-2.36 3.66-3.62 1.88-2.06 1.77-3.3-.3-5.14-.27-.24-.56-.45-.85-.67-3.34-2.56-6.35-5.45-9.13-8.6-2.1-2.4-4.47-4.55-6.8-6.73-1.06-1-2.38-1.57-3.92-1.54-.4.01-.9-.3-1.2-.6l-6.7-6.68c-1.54-1.57-3.07-3.15-4.5-4.8-1.38-1.58-1.25-3.02.3-4.4 2.43-2.17 5.23-3.47 8.57-3.4zm3.92 18.16c.48.42.6.56.77.66 1.9 1.3 3.88 2.5 5.66 3.92.9.74 1.35.78 2.06-.12 3.1-3.92 7-6.54 11.98-7.53 2.13-.42 3.97-1.62 5.6-3.1 1.48-1.34 1.73-2.96 1.25-4.8-.22-.87-.62-1.07-1.46-.66-1.67.82-3.38 1.56-5.14 2.37l-2.6-5.64 5.13-2.42c1-.44.98-.96.4-1.73-.77-1-1.78-1.57-3.02-1.75-3.28-.47-7.66 1.84-9.06 4.85-.6 1.26-1.2 2.54-1.54 3.88-.66 2.5-1.97 4.62-3.72 6.46-1.6 1.67-3.33 3.2-5.03 4.78-.33.3-.78.5-1.27.82zm-16.76 29c1.43.05 2.63-.7 3.65-1.77l11.07-11.76c.7-.74.75-1.2-.04-1.92-1.78-1.63-3.25-3.52-3.95-5.9-.36-1.2-.47-1.24-1.43-.36L25 60.15c-.97.9-1.43 2-1.45 3.3-.04 3.3 2.43 5.76 5.87 5.74zm95.73-34.5l1.23 9.65c.07.5.26 1 .5 1.47.88 1.8 2.6 2.27 4.16 1.04 1.98-1.56 2.96-3.8 3.75-6.12.3-.83-.33-1-1-1.05l-3.9-.45c-1.05-.2-1.75-.83-1.9-2-.08-.66-.37-1.3-.6-1.93-.45-1.17-.16-1.8 1.13-2.02l7.8-1.17 5-.52c2.1-.1 4.32 1.96 4.17 4.04-.43 5.8-2.4 11.05-6.57 15.24-2.5 2.5-5.7 2.67-8.96 2-2.6-.54-5.2-1.2-7.75-1.97-.72-.22-1.4-.93-1.88-1.57-3.18-4.15-4.76-8.92-4.93-14.1-.24-7.5 1.46-14.55 5.66-20.88 1.45-2.18 3.16-4.14 5.53-5.36.78-.4 1.77-.7 2.6-.6 2.24.25 4.54.5 6.67 1.2 6 1.97 8.23 5.52 7.7 11.8-.1 1.3-.28 2.62-.63 3.88-.5 1.76-1.57 2.45-3.4 2.36-1.4-.07-2.78-.17-4.15-.34-.35-.04-.8-.3-.97-.58-1.03-1.8-1.62-3.67-1.22-5.82.3-1.54.46-3.14.35-4.7-.1-1.45-.93-1.7-2-.66-2.57 2.44-4.1 5.54-4.83 8.92-.73 3.45-1.07 6.98-1.55 10.25zm122.64-7.32l.7-1.2 8.8-14.23c1.93-3 6.1-3.05 8.43-.33.6.7.4 1.32-.02 1.95l-4.34 6.3-4.6 6.57c-1.07 1.46-1.16 2.72-.17 4.34 3.18 5.2 6.2 10.5 9.27 15.76.26.44.46.93.63 1.42.55 1.63-.1 3.03-1.75 3.62-.97.35-1.97.76-2.98.85-.75.06-1.76-.13-2.26-.6-1.1-1.07-2.1-2.3-2.88-3.63L248.03 33c-.08-.14-.16-.27-.4-.7l-.23 4.8-.25 12.67c-.05 2.28-.63 2.86-2.83 2.42-1.87-.37-3.7-.94-5.52-1.53-.3-.1-.63-.73-.63-1.12l.07-13.75c0-.52.04-1.03.05-1.55l.38-21.16c.01-.64.1-1.27.18-1.9.18-1.57.3-1.78 1.83-1.64 1.86.17 3.7.5 5.55.84 1.05.2 1.37 1 1.36 1.96l-.1 11.24v3.68c.1.04.22.07.34.1zm44.16-9.74l-4.06.55c-1.2.23-2-.22-2.27-1.35l-1-4.9c-.23-1.2.4-1.74 1.55-1.9l10.67-1.44 8.56-.94c1.48-.12 3.12 1.5 3.07 3-.04 1.3-.22 2.62-.38 3.92-.1.82-.57 1.22-1.45 1.28l-4.3.42c-.76.05-1.05.34-1.05 1.1l-.02 19.13.2 14.58c.01.87-.53 1.26-1.24 1.33-2.58.25-5.13-.01-7.45-1.2-.57-.3-1.1-1.23-1.13-1.9l-.07-8.58.36-18.16v-4.93zM157.2 45.23l1.07-5.08 2.26-15.47.17-1.06c.3-1.33.7-1.53 2.02-1.2l3.86.78c1.72.32 2.32 1.13 1.95 2.82l-7.66 35-.87 4.94c-.14 1.02-.63 1.4-1.6 1.16-.5-.13-.97-.33-1.46-.5l-3.44-1.25s-1.46-.97-1.13-2.16l2.93-11.17c.52-2.2.2-2.56-2.04-2.64-1.75-.07-2.66-1.1-3.08-2.54-.67-2.28-1.3-4.6-1.66-6.95-.6-3.98-1-7.98-1.37-11.98-.3-3.14.1-3.42 3.13-2.74 1.12.25 2.27.45 3.35.84.46.17 1 .72 1.1 1.17.4 2.23.73 4.48.95 6.73l.77 9.52c.05.6.25 1.2.37 1.8h.4zm55.38-9.47v1.67c-.02 2.2-.03 2.27-2.3 2.22-3.08-.07-6 .65-8.93 1.5-.04.01-.08.01-.12.03-.93.35-1.3 1.93-.88 3.75.3 1.25.82 1.65 2 1.54 1.44-.13 2.54-.9 3.5-1.9.5-.52.92-1.1 1.35-1.67 1.4-1.86 3.54-2.18 5.46-.8.88.63 1.17 2.1.52 3.56-1.03 2.27-2.4 4.35-4.43 5.85-2.6 1.9-5.53 1.74-8.36.8-1.75-.58-3.4-1.55-4.96-2.56-2.35-1.5-2.74-4.04-2.8-6.54-.13-5.75 1.17-11.23 3.6-16.42 1.38-2.95 2.54-3.06 5.4-2.93 1.98.1 3.95.5 5.9.94 2.2.5 3.72 1.95 4.23 4.12.52 2.23.73 4.54 1.07 6.82-.07 0-.15.01-.22.02zm-11.18-.07c1.2-.3 2.08-.5 2.95-.78.26-.08.65-.4.64-.6-.1-1.66-.18-3.32-.44-4.95-.1-.7-.78-.73-1.12-.12-1.05 1.93-1.68 4-2.03 6.44zm-21.65 8.62l1.07-5.7L183 23.7c.43-2.68 1.4-3.25 4-2.6.76.2 1.5.53 2.2.93 1.56.94 2.04 2.08 1.6 3.85l-4.7 18.52-1.57 6.87c-.35 1.44-1.1 1.88-2.56 1.56-2.28-.5-4.45-1.5-6.87-1.42-1.04.03-1.42-.97-1.6-1.84l-1.63-7.95-2.4-15.47c-.3-2.05.16-2.42 2.2-1.98.85.18 1.73.25 2.6.3 2.36.13 3.27.87 3.52 3.2l.96 10.1.7 6.46c.1.03.2.05.33.06zm100.4-13.12v19.73c0 2.16-.7 2.58-2.76 1.92-1.24-.4-2.55-.62-3.84-.84-2-.33-3.02-1.44-3-3.45L270.8 11c.02-2.1.5-2.7 2.6-2.66 1.74.04 3.5.25 5.2.58 1.12.2 1.65 1.07 1.65 2.3l-.02 19.95c-.03.01-.05.01-.07.01zm-55-3.2l1-2.66c.36-.9 1.04-1.45 2.02-1.4 1.42.1 2.87.16 4.25.47 1.38.32 2 1.4 2.2 2.8a12.44 12.44 0 0 1-1.38 7.73c-.42.8-.88 1.18-1.77 1-.2-.04-.4-.1-.6-.1-1.9.02-2.92-.9-3.17-2.8-.06-.45-.6-.83-.9-1.25-.3.46-.86.9-.87 1.37v7.53l.2 10.28c.02 1.56-.5 1.86-2 1.6-.97-.17-1.98-.17-2.97-.12-1.84.1-2.76-.9-2.74-2.74l.08-20.46c0-.74-.3-1.48-.42-2.22-.18-1.1.23-1.73 1.35-1.76a25.67 25.67 0 0 1 3.82.2c1.34.15 1.46 1.4 1.9 2.52zm8.47 51l1.1-4.85c.24-1.28-.6-2-1.75-1.52-.3.12-.6.5-.67.82l-1 5.3h-1.85l.94-4.13c.1-.56.1-1.22-.14-1.7-.13-.27-.84-.38-1.26-.34-.26.03-.6.46-.7.77l-1.34 5.42h-1.77l1.68-6.85a.85.85 0 0 1 .52-.54c1.3-.32 2.63-.7 3.96-.01.26.13.65.07.97.02.58-.1 1.16-.35 1.74-.38 1.6-.07 2.6.8 2.45 2.37-.16 1.7-.55 3.37-1.03 5-.1.34-1.1.4-1.85.64zm-114.87-6.25l3.55-.03c.25-.01.58-.36.68-.63.23-.63.4-1.3.47-1.97.13-1.28.73-1.76 2.16-1.3l-2.36 9.9h-1.83l1.02-4.4h-4.06l-1.1 4.4h-1.83l2.4-10h1.8l-.9 4.02zm18.14-1.26c3.58-.5 4.97 1.3 3.7 4.73-.64 1.72-2.18 2.78-3.95 2.74-1.48-.03-2.43-.86-2.53-2.32-.16-2.25.4-4.35 1.47-6.3.85-1.56 2.33-2.22 4-2.5l2.2-.27v1.44c-1.83.42-4.03.16-4.9 2.5zm-1.32 4.23c.3.54.5 1.3.96 1.56.36.2 1.2-.03 1.6-.35 1-.8 1.32-1.98 1.03-3.2-.1-.37-.67-.86-1.04-.87-1.76-.01-2.2.35-2.55 2.86zm143.42-6.47l-.64 1.33c-2.97-.9-4.67-.53-5.65 1.53-.5 1.05-.6 2.36-.6 3.55-.02.9.7 1.48 1.62 1.67 1.43.28 1.8.03 2.14-1.4l.56-2.25h1.8l-1.03 4.3c-.07.25-.37.47-.6.63-.2.12-.45.15-.68.2-3.23.56-5.14-.32-5.7-2.62-.75-3.03 1.1-6.55 3.96-7.43 1.6-.5 3.22-.5 4.86.5zm-30.93-.45l1.37 9.92h-1.83l-.32-2.3c-1.23 0-2.47-.08-3.68.05-.36.04-.8.6-.97 1.03-.47 1.26-1.3 1.58-2.67 1.17l2.37-4 3.08-4.84c.83-1.26.85-1.25 2.65-1.03zm-.9 6.07l-.43-3.86-.3-.05-2.37 3.9h3.1zm-77.17 3.9h-1.9l-.3-2.34c-1.2 0-2.4-.08-3.57.04-.38.04-.84.54-1 .94-.52 1.2-1.28 1.77-2.7 1.26l2.08-3.54 3.65-5.76c.45-.73 1.1-.85 1.73-.63.33.1.63.72.7 1.14l1.32 8.9zm-5.43-3.87h3.16l-.46-3.9-.25-.06-2.45 3.95zm18.82 3.86l-1.88-.15.04-.2c-.52.18-1.03.43-1.57.5-1.63.25-2.8-.72-2.94-2.36-.28-3.2 1.75-5.42 5-5.5l.7-.03c.17-.64.43-1.27.5-1.9.13-1.25.77-1.7 2.03-1.5-.4 3.67-2.3 7.1-1.87 11.13zm-1.1-6.1c-2.04-.7-4 1.74-3.45 3.7.12.44.8 1.02 1.2 1 .5-.02 1.26-.5 1.42-.95.42-1.2.57-2.47.83-3.76zm-30.7 6.22l-.7 2.52h-1.73l1.8-7.58c.02-.08.05-.15.07-.23.3-.74.42-1.97.9-2.13 1.12-.37 2.45-.43 3.6-.2.63.12 1.36 1.02 1.57 1.72.86 2.86-1.3 5.74-4.27 5.9-.4.02-.8 0-1.26 0zm.34-1.62c2.3.33 4.07-1.57 3.5-3.7-.2-.78-.76-1.03-1.52-1.05-.7-.02-.97.3-1.1.95l-.9 3.8zM133 71.46l-1.27 7.24-1.22-.22c-.26-.03-.57 0-.8.1-2.2.93-3.88-.08-3.93-2.46-.1-4.64 4.68-6.1 7.23-4.67zm-1.95 1.13c-2.24-.25-3.95 1.65-3.42 3.74.1.42.7 1.03 1.04 1 .53-.04 1.3-.44 1.47-.88.44-1.2.62-2.52.9-3.86zM277 81.02l.5-1.25.94.16c1.42.1 2.25-.94 1.97-2.32l-.76-4.35c-.1-.66-.1-1.33-.15-2.08h1.68l.6 5.28.34.12 1.4-2.88c.18-.4.38-.8.45-1.23.2-1.3.9-1.65 2.2-1.25-.06.26-.08.57-.2.82l-4.05 7.42c-1.26 1.98-3.15 2.4-4.88 1.56zm-52.5-7.12c-.04 2.7-1.7 4.8-4 5.02-1.73.17-2.86-.68-3.14-2.36-.47-2.76 1.62-5.56 4.2-5.6 1.88-.04 2.98 1.06 2.95 2.94zm-1.52.3c-.4-.65-.6-1.46-1.02-1.6-.5-.16-1.48.06-1.74.45-.56.85-.9 1.9-1.1 2.9-.08.38.38 1.16.76 1.28.46.15 1.3-.01 1.58-.36.62-.75 1-1.7 1.52-2.68zm-81.05 1.62c.07-2.97 2.12-5.16 4.68-4.8.72.1 1.63.62 2 1.23 1.42 2.33-.53 6.2-3.22 6.62-2.23.35-3.5-.78-3.46-3.04zm1.44-.15c.43.65.7 1.5 1.12 1.58.56.1 1.5-.2 1.8-.64.52-.78.77-1.78.9-2.73.06-.4-.36-1.17-.72-1.3-.46-.16-1.3-.01-1.58.33-.62.76-1 1.73-1.54 2.75zm62.36.16c.05-3 2.13-5.2 4.7-4.82.72.1 1.63.64 2 1.26 1.4 2.3-.53 6.13-3.2 6.58-2.24.38-3.55-.74-3.5-3.02zm1.42-.17c.43.67.66 1.47 1.08 1.58.53.13 1.5-.1 1.76-.52.53-.82.83-1.85 1-2.84.07-.4-.34-1.13-.72-1.3-.4-.18-1.24-.04-1.5.28-.64.8-1.06 1.8-1.63 2.8zm88.66.48c.26 1.33.75 1.5 3.5 1.03l.25 1.23c-1.3.6-2.62.78-3.9.25-.56-.23-1.12-.8-1.37-1.38-1.23-2.75 1.16-6.3 4.18-6.32 1.03 0 1.92.27 2.28 1.35.37 1.1-.07 2.36-1.2 2.82-1.16.48-2.43.68-3.74 1.02zm.07-1.37c1.02-.23 1.83-.3 2.52-.62.34-.16.46-.78.68-1.2-.43-.17-.9-.53-1.28-.46-1.03.18-1.57.95-1.92 2.28zM191.3 78.75l-1.28-.32c-.23-.04-.5.02-.73.12-1.05.47-2.1.6-3.05-.13-.93-.73-.9-1.8-.68-2.85l1-4.4h1.76l-.83 3.6-.23 1.17c-.07.66-.07 1.37.83 1.43.8.06 1.5-.14 1.7-1.1l1.14-5.1h1.65l-1.3 7.6zm65.3-2.62c.14 1.34.8 1.56 3.56.97l.1 1.26c-.14.1-.23.17-.34.2-1.94.67-3.73.4-4.56-.67-.85-1.1-.75-3.28.23-4.87.96-1.55 2.75-2.37 4.4-2.02.93.2 1.5.77 1.6 1.7.13 1.04-.24 2-1.2 2.38-1.2.5-2.5.72-3.78 1.06zm.05-1.36c1.02-.24 1.86-.32 2.58-.65.32-.15.42-.8.62-1.2-.44-.15-.9-.5-1.3-.43-1 .2-1.57.96-1.9 2.3zm-53.22 3.98h-1.86l1.03-4.5c.26-1.3-.18-1.87-1.35-1.72-.37.05-.88.48-1 .84-.4 1.3-.66 2.62-.96 3.93-.37 1.6-.37 1.6-2.14 1.4l1.62-6.7c.05-.2.17-.53.32-.58 1.42-.4 2.92-.86 4.28-.06.53.3 1.02 1.25.97 1.85-.16 1.83-.6 3.65-.92 5.54zm64.9-.01h-1.78l-1.13-2.5c-1.43.8-1.8 3.23-4.23 2.4l2.8-3.23c.4-.45.5-.8.18-1.35l-1.38-2.74.17-.33c.6.2 1.36.2 1.77.6.48.46.65 1.24.98 1.92 1.3-.7 1.42-3.08 3.72-2.2l-2.32 2.88c-.44.5-.52.88-.2 1.47.5.93.9 1.92 1.42 3.08zm19.58.24l-1.04-7.8h1.83l.47 5.2.36.1 2.82-5.3h1.67c-1.02 2.7-2.42 5.1-4.26 7.22-.3.36-1.03.36-1.85.6zm-33.34-11.42l-1.9 7.78c-.2.84-.46 1.78 1.17 2.2-.53.52-.88 1.18-1.3 1.22-.9.1-1.7-.43-1.75-1.4-.04-1 .14-2.05.35-3.05l1.26-5.33c.2-1.28.92-1.48 2.16-1.4zM172.7 78.72h-1.77l1.7-6.85c.05-.2.33-.5.54-.52l3.84-.43c-.05 1.37-.48 1.83-1.6 1.58-.88-.2-1.34.24-1.52 1.17l-1.2 5.05zm134.8-7.83l-.56 1.65c-2.4-.05-2.4-.06-2.96 2.25-.2.85-.47 1.7-.57 2.55-.15 1.26-.73 1.76-2.1 1.3l1.65-6.84c.05-.2.36-.44.58-.47l3.96-.44zm-114.3 7.84l1.82-7.56h1.76l-1.8 7.56h-1.78zm4.44-9.58c-.47.27-.93.7-1.43.74-.28.02-.6-.6-.9-.93.43-.4.8-.9 1.3-1.1.2-.08.67.5 1.02.78l.02.52zM65.13 33.8l-4.37 2.08c-.16.07-.64-.23-.77-.47l-1.4-2.78c-.3-.57-.1-.86.43-1.1l3.36-1.57c.26-.1.86.08 1 .3.62 1.1 1.13 2.25 1.75 3.54zM31.2 63.7c-.03 1.1-1 2.02-2.14 1.96-1.08-.05-1.95-1-1.92-2.05.03-1.1 1.06-2.05 2.13-2 1.05.06 1.96 1.03 1.93 2.08z"/></svg>